<?xml version="1.0" standalone="no"?>
<!DOCTYPE svg PUBLIC "-//W3C//DTD SVG 20010904//EN"
 "http://www.w3.org/TR/2001/REC-SVG-20010904/DTD/svg10.dtd">
<svg version="1.0" xmlns="http://www.w3.org/2000/svg"
 width="144.000000pt" height="144.000000pt" viewBox="0 0 144.000000 144.000000"
 preserveAspectRatio="xMidYMid meet">
<metadata>
Created by potrace 1.11, written by Peter Selinger 2001-2013
</metadata>
<g transform="translate(0.000000,144.000000) scale(0.100000,-0.100000)"
fill="#000000" stroke="none">
<path d="M580 1425 c-149 -31 -255 -88 -366 -199 -90 -90 -143 -175 -182 -294
-22 -67 -26 -94 -26 -212 0 -118 4 -145 26 -212 39 -119 92 -204 182 -294 90
-90 175 -143 294 -182 67 -22 94 -26 212 -25 119 0 144 3 215 26 114 38 198
90 291 182 90 89 142 173 182 293 23 68 25 93 25 212 -1 114 -5 147 -26 212
-51 160 -156 298 -295 389 -158 104 -350 141 -532 104z"/>
</g>
</svg>
